<mxfile host="Electron" agent="Mozilla/5.0 (X11; Linux x86_64) AppleWebKit/537.36 (KHTML, like Gecko) draw.io/26.2.2 Chrome/134.0.6998.178 Electron/35.1.2 Safari/537.36" version="26.2.2">
  <diagram id="C5RBs43oDa-KdzZeNtuy" name="Page-1">
    <mxGraphModel dx="2878" dy="1242" grid="1" gridSize="10" guides="1" tooltips="1" connect="1" arrows="1" fold="1" page="1" pageScale="1" pageWidth="2336" pageHeight="1654" math="0" shadow="0">
      <root>
        <mxCell id="WIyWlLk6GJQsqaUBKTNV-0" />
        <mxCell id="WIyWlLk6GJQsqaUBKTNV-1" parent="WIyWlLk6GJQsqaUBKTNV-0" />
        <mxCell id="fcJVb3HREh7NScvAmxeq-0" value="" style="group" parent="WIyWlLk6GJQsqaUBKTNV-1" vertex="1" connectable="0">
          <mxGeometry x="1090" y="40" width="490" height="220" as="geometry" />
        </mxCell>
        <mxCell id="fcJVb3HREh7NScvAmxeq-1" value="&lt;font color=&quot;#000000&quot; size=&quot;1&quot;&gt;&lt;b style=&quot;font-size: 14px&quot;&gt;Legend:&lt;br&gt;&lt;/b&gt;&lt;/font&gt;&lt;br&gt;&lt;br&gt;&lt;br&gt;&lt;font color=&quot;#0000ff&quot; style=&quot;font-size: 6px&quot;&gt;&lt;br&gt;&lt;/font&gt;&lt;span style=&quot;color: rgb(0 , 0 , 0)&quot;&gt;&lt;font style=&quot;font-size: 4px&quot;&gt;&amp;nbsp; &amp;nbsp;&lt;/font&gt;&amp;nbsp;In progress&amp;nbsp; &amp;nbsp; &amp;nbsp; &amp;nbsp; &amp;nbsp; &amp;nbsp; In validation&amp;nbsp; &amp;nbsp; &amp;nbsp; &amp;nbsp; &amp;nbsp; &amp;nbsp;Ready to use&lt;/span&gt;&lt;font color=&quot;#000000&quot;&gt;&amp;nbsp;&lt;br&gt;&lt;/font&gt;&lt;font color=&quot;#0000ff&quot;&gt;&lt;br&gt;&lt;br&gt;&lt;br&gt;&lt;br&gt;&amp;nbsp;attribute / method()&amp;nbsp; &amp;nbsp; &amp;nbsp; &amp;nbsp; New public attribute/method to be implemented&lt;/font&gt;&lt;br&gt;&lt;font color=&quot;#000000&quot;&gt;&amp;nbsp;&lt;/font&gt;&lt;font color=&quot;#000000&quot;&gt;attribute / method()&lt;span&gt; &lt;/span&gt;&amp;nbsp; &amp;nbsp; &amp;nbsp; &amp;nbsp;New/inherited public attribute/method that is implemented here&lt;br&gt;&lt;/font&gt;&lt;font color=&quot;#0000ff&quot;&gt;&amp;nbsp;_attribute /&amp;nbsp;&lt;/font&gt;&lt;font color=&quot;#0000ff&quot;&gt;_method()&amp;nbsp; &amp;nbsp; New protected method/attribute to be implemented&lt;/font&gt;&lt;br&gt;&lt;font color=&quot;#000000&quot;&gt;&amp;nbsp;_attribute / _method()&amp;nbsp; &amp;nbsp; New/inherited protected attribute/method that is implemented here&lt;br&gt;&lt;/font&gt;&lt;font color=&quot;#000000&quot;&gt;&lt;br&gt;&lt;br&gt;&lt;br&gt;&lt;br&gt;&lt;br&gt;&lt;/font&gt;" style="text;html=1;align=left;verticalAlign=top;whiteSpace=wrap;rounded=0;fontColor=#006600;strokeColor=#000000;shadow=1;fillColor=#ffffff;" parent="fcJVb3HREh7NScvAmxeq-0" vertex="1">
          <mxGeometry width="489.99999999999994" height="220" as="geometry" />
        </mxCell>
        <mxCell id="fcJVb3HREh7NScvAmxeq-2" value="Depends on" style="endArrow=block;html=1;labelPosition=right;verticalLabelPosition=middle;align=left;verticalAlign=middle;endFill=1;fontSize=12;" parent="fcJVb3HREh7NScvAmxeq-0" edge="1">
          <mxGeometry x="-1623.1249999999998" y="-2180" width="51.041666666666664" height="50" as="geometry">
            <mxPoint x="10.20802398989899" y="120.00301587301601" as="sourcePoint" />
            <mxPoint x="55.990852272727174" y="120.00301587301601" as="targetPoint" />
            <mxPoint x="98" as="offset" />
            <Array as="points">
              <mxPoint x="30.624999999999996" y="120" />
            </Array>
          </mxGeometry>
        </mxCell>
        <mxCell id="fcJVb3HREh7NScvAmxeq-3" value="Inherits from" style="endArrow=block;html=1;labelPosition=right;verticalLabelPosition=middle;align=left;verticalAlign=middle;endFill=0;fontSize=12;" parent="fcJVb3HREh7NScvAmxeq-0" edge="1">
          <mxGeometry x="-1623.1249999999998" y="-2180" width="51.041666666666664" height="50" as="geometry">
            <mxPoint x="10.20802398989899" y="132.3846031746034" as="sourcePoint" />
            <mxPoint x="55.990852272727174" y="132.3846031746034" as="targetPoint" />
            <mxPoint x="98" y="1" as="offset" />
          </mxGeometry>
        </mxCell>
        <mxCell id="fcJVb3HREh7NScvAmxeq-4" value="" style="swimlane;fontStyle=3;align=center;verticalAlign=top;childLayout=stackLayout;horizontal=1;startSize=26;horizontalStack=0;resizeParent=1;resizeLast=0;collapsible=1;marginBottom=0;rounded=0;shadow=1;strokeWidth=1;fillColor=#f8cecc;strokeColor=#b85450;gradientColor=#ffffff;swimlaneFillColor=#ffffff;" parent="fcJVb3HREh7NScvAmxeq-0" vertex="1">
          <mxGeometry x="10.208333333333332" y="40" width="40.83333333333333" height="34" as="geometry">
            <mxRectangle x="230" y="140" width="160" height="26" as="alternateBounds" />
          </mxGeometry>
        </mxCell>
        <mxCell id="fcJVb3HREh7NScvAmxeq-5" value="" style="line;html=1;strokeWidth=1;align=left;verticalAlign=middle;spacingTop=-1;spacingLeft=3;spacingRight=3;rotatable=0;labelPosition=right;points=[];portConstraint=eastwest;" parent="fcJVb3HREh7NScvAmxeq-4" vertex="1">
          <mxGeometry y="26" width="40.83333333333333" height="8" as="geometry" />
        </mxCell>
        <mxCell id="fcJVb3HREh7NScvAmxeq-6" value="" style="swimlane;fontStyle=3;align=center;verticalAlign=top;childLayout=stackLayout;horizontal=1;startSize=26;horizontalStack=0;resizeParent=1;resizeLast=0;collapsible=1;marginBottom=0;rounded=0;shadow=1;strokeWidth=1;fillColor=#fff2cc;strokeColor=#d6b656;gradientColor=#ffffff;swimlaneFillColor=#ffffff;" parent="fcJVb3HREh7NScvAmxeq-0" vertex="1">
          <mxGeometry x="112.29166666666666" y="40" width="40.83333333333333" height="34" as="geometry">
            <mxRectangle x="230" y="140" width="160" height="26" as="alternateBounds" />
          </mxGeometry>
        </mxCell>
        <mxCell id="fcJVb3HREh7NScvAmxeq-7" value="" style="line;html=1;strokeWidth=1;align=left;verticalAlign=middle;spacingTop=-1;spacingLeft=3;spacingRight=3;rotatable=0;labelPosition=right;points=[];portConstraint=eastwest;" parent="fcJVb3HREh7NScvAmxeq-6" vertex="1">
          <mxGeometry y="26" width="40.83333333333333" height="8" as="geometry" />
        </mxCell>
        <mxCell id="fcJVb3HREh7NScvAmxeq-8" value="" style="swimlane;fontStyle=3;align=center;verticalAlign=top;childLayout=stackLayout;horizontal=1;startSize=26;horizontalStack=0;resizeParent=1;resizeLast=0;collapsible=1;marginBottom=0;rounded=0;shadow=1;strokeWidth=1;fillColor=#dae8fc;strokeColor=#6c8ebf;gradientColor=#ffffff;swimlaneFillColor=#ffffff;" parent="fcJVb3HREh7NScvAmxeq-0" vertex="1">
          <mxGeometry x="214.37499999999997" y="40" width="40.83333333333333" height="34" as="geometry">
            <mxRectangle x="230" y="140" width="160" height="26" as="alternateBounds" />
          </mxGeometry>
        </mxCell>
        <mxCell id="fcJVb3HREh7NScvAmxeq-9" value="" style="line;html=1;strokeWidth=1;align=left;verticalAlign=middle;spacingTop=-1;spacingLeft=3;spacingRight=3;rotatable=0;labelPosition=right;points=[];portConstraint=eastwest;" parent="fcJVb3HREh7NScvAmxeq-8" vertex="1">
          <mxGeometry y="26" width="40.83333333333333" height="8" as="geometry" />
        </mxCell>
        <mxCell id="7JkVl93vQoOUYRVFK4Rs-23" style="edgeStyle=orthogonalEdgeStyle;rounded=0;orthogonalLoop=1;jettySize=auto;html=1;endArrow=block;endFill=0;" parent="WIyWlLk6GJQsqaUBKTNV-1" source="p2okAq9_pR5mkignAm-u-1" target="7JkVl93vQoOUYRVFK4Rs-1" edge="1">
          <mxGeometry relative="1" as="geometry">
            <mxPoint x="765" y="340" as="targetPoint" />
          </mxGeometry>
        </mxCell>
        <mxCell id="p2okAq9_pR5mkignAm-u-1" value="PointAnomaly (AnomalyIB)" style="swimlane;fontStyle=1;align=center;verticalAlign=top;childLayout=stackLayout;horizontal=1;startSize=26;horizontalStack=0;resizeParent=1;resizeLast=0;collapsible=1;marginBottom=0;rounded=0;shadow=1;strokeWidth=1;fillColor=#dae8fc;strokeColor=#6c8ebf;swimlaneFillColor=#ffffff;fontFamily=Helvetica;fontSize=12;gradientColor=#FFFFFF;" parent="WIyWlLk6GJQsqaUBKTNV-1" vertex="1">
          <mxGeometry x="620" y="450" width="290" height="560" as="geometry">
            <mxRectangle x="230" y="140" width="160" height="26" as="alternateBounds" />
          </mxGeometry>
        </mxCell>
        <mxCell id="Gbw-wuow6PzR90Tq7J3Y-12" value="C_PLOT_CH_SIZE = 0.06" style="text;align=left;verticalAlign=top;spacingLeft=4;spacingRight=4;overflow=hidden;rotatable=0;points=[[0,0.5],[1,0.5]];portConstraint=eastwest;" parent="p2okAq9_pR5mkignAm-u-1" vertex="1">
          <mxGeometry y="26" width="290" height="28" as="geometry" />
        </mxCell>
        <mxCell id="Gbw-wuow6PzR90Tq7J3Y-13" value="C_PLOT_CH_OFFSET = 0.4" style="text;align=left;verticalAlign=top;spacingLeft=4;spacingRight=4;overflow=hidden;rotatable=0;points=[[0,0.5],[1,0.5]];portConstraint=eastwest;" parent="p2okAq9_pR5mkignAm-u-1" vertex="1">
          <mxGeometry y="54" width="290" height="28" as="geometry" />
        </mxCell>
        <mxCell id="p2okAq9_pR5mkignAm-u-5" value="" style="line;html=1;strokeWidth=1;align=center;verticalAlign=top;spacingTop=-1;spacingLeft=3;spacingRight=3;rotatable=0;labelPosition=right;points=[];portConstraint=eastwest;rounded=0;shadow=1;strokeColor=#6c8ebf;swimlaneFillColor=#ffffff;fontFamily=Helvetica;fontSize=12;fontColor=default;fontStyle=1;fillColor=#dae8fc;gradientColor=#ffffff;" parent="p2okAq9_pR5mkignAm-u-1" vertex="1">
          <mxGeometry y="82" width="290" height="8" as="geometry" />
        </mxCell>
        <mxCell id="oLJumqx1HHhM9YScGNT0-30" value="_init_plot_2d( p_figure: Figure,&#xa;                       p_settings: PlotSettings,&#xa;                        **p_kwargs)" style="text;align=left;verticalAlign=top;spacingLeft=4;spacingRight=4;overflow=hidden;rotatable=0;points=[[0,0.5],[1,0.5]];portConstraint=eastwest;" parent="p2okAq9_pR5mkignAm-u-1" vertex="1">
          <mxGeometry y="90" width="290" height="50" as="geometry" />
        </mxCell>
        <mxCell id="N38WU9mJ-Era6qwWuLtT-4" value="_init_plot_3d( p_figure: Figure,&#xa;                       p_settings: PlotSettings,&#xa;                        **p_kwargs)" style="text;align=left;verticalAlign=top;spacingLeft=4;spacingRight=4;overflow=hidden;rotatable=0;points=[[0,0.5],[1,0.5]];portConstraint=eastwest;" parent="p2okAq9_pR5mkignAm-u-1" vertex="1">
          <mxGeometry y="140" width="290" height="50" as="geometry" />
        </mxCell>
        <mxCell id="N38WU9mJ-Era6qwWuLtT-5" value="_init_plot_nd( p_figure: Figure,&#xa;                       p_settings: PlotSettings,&#xa;                        **p_kwargs)" style="text;align=left;verticalAlign=top;spacingLeft=4;spacingRight=4;overflow=hidden;rotatable=0;points=[[0,0.5],[1,0.5]];portConstraint=eastwest;" parent="p2okAq9_pR5mkignAm-u-1" vertex="1">
          <mxGeometry y="190" width="290" height="50" as="geometry" />
        </mxCell>
        <mxCell id="IN7lYUDwhcxV2UBQLD-M-2" value="_update_plot_2d( p_settings: PlotSettings,&#xa;                             p_axlimits_changed : bool,&#xa;                             p_xlim,&#xa;                             p_ylim,&#xa;                            **p_kwargs) -&gt; bool" style="text;align=left;verticalAlign=top;spacingLeft=4;spacingRight=4;overflow=hidden;rotatable=0;points=[[0,0.5],[1,0.5]];portConstraint=eastwest;" parent="p2okAq9_pR5mkignAm-u-1" vertex="1">
          <mxGeometry y="240" width="290" height="80" as="geometry" />
        </mxCell>
        <mxCell id="IN7lYUDwhcxV2UBQLD-M-1" value="_update_plot_3d( p_settings: PlotSettings,&#xa;                             p_axlimits_changed : bool,&#xa;                             p_xlim,&#xa;                             p_ylim,&#xa;                            **p_kwargs) -&gt; bool" style="text;align=left;verticalAlign=top;spacingLeft=4;spacingRight=4;overflow=hidden;rotatable=0;points=[[0,0.5],[1,0.5]];portConstraint=eastwest;" parent="p2okAq9_pR5mkignAm-u-1" vertex="1">
          <mxGeometry y="320" width="290" height="80" as="geometry" />
        </mxCell>
        <mxCell id="IN7lYUDwhcxV2UBQLD-M-0" value="_update_plot_nd( p_settings: PlotSettings,&#xa;                             p_axlimits_changed : bool,&#xa;                             p_ylim,&#xa;                            **p_kwargs) -&gt; bool" style="text;align=left;verticalAlign=top;spacingLeft=4;spacingRight=4;overflow=hidden;rotatable=0;points=[[0,0.5],[1,0.5]];portConstraint=eastwest;" parent="p2okAq9_pR5mkignAm-u-1" vertex="1">
          <mxGeometry y="400" width="290" height="70" as="geometry" />
        </mxCell>
        <mxCell id="oLJumqx1HHhM9YScGNT0-31" value="_remove_plot_2d()" style="text;align=left;verticalAlign=top;spacingLeft=4;spacingRight=4;overflow=hidden;rotatable=0;points=[[0,0.5],[1,0.5]];portConstraint=eastwest;" parent="p2okAq9_pR5mkignAm-u-1" vertex="1">
          <mxGeometry y="470" width="290" height="30" as="geometry" />
        </mxCell>
        <mxCell id="N38WU9mJ-Era6qwWuLtT-6" value="_remove_plot_3d()" style="text;align=left;verticalAlign=top;spacingLeft=4;spacingRight=4;overflow=hidden;rotatable=0;points=[[0,0.5],[1,0.5]];portConstraint=eastwest;" parent="p2okAq9_pR5mkignAm-u-1" vertex="1">
          <mxGeometry y="500" width="290" height="30" as="geometry" />
        </mxCell>
        <mxCell id="N38WU9mJ-Era6qwWuLtT-7" value="_remove_plot_nd()" style="text;align=left;verticalAlign=top;spacingLeft=4;spacingRight=4;overflow=hidden;rotatable=0;points=[[0,0.5],[1,0.5]];portConstraint=eastwest;" parent="p2okAq9_pR5mkignAm-u-1" vertex="1">
          <mxGeometry y="530" width="290" height="30" as="geometry" />
        </mxCell>
        <mxCell id="7JkVl93vQoOUYRVFK4Rs-24" style="edgeStyle=orthogonalEdgeStyle;rounded=0;orthogonalLoop=1;jettySize=auto;html=1;endArrow=block;endFill=0;" parent="WIyWlLk6GJQsqaUBKTNV-1" source="y2l99iwQbg-wAnSwsQFK-0" target="7JkVl93vQoOUYRVFK4Rs-1" edge="1">
          <mxGeometry relative="1" as="geometry">
            <Array as="points">
              <mxPoint x="1135" y="390" />
              <mxPoint x="765" y="390" />
            </Array>
            <mxPoint x="765" y="340" as="targetPoint" />
          </mxGeometry>
        </mxCell>
        <mxCell id="y2l99iwQbg-wAnSwsQFK-0" value="GroupAnomaly (AnomalyIB)" style="swimlane;align=center;verticalAlign=top;childLayout=stackLayout;horizontal=1;startSize=26;horizontalStack=0;resizeParent=1;resizeLast=0;collapsible=1;marginBottom=0;rounded=0;shadow=1;strokeWidth=1;fillColor=#dae8fc;strokeColor=#6c8ebf;swimlaneFillColor=#ffffff;gradientColor=#FFFFFF;" parent="WIyWlLk6GJQsqaUBKTNV-1" vertex="1">
          <mxGeometry x="990" y="450" width="290" height="420" as="geometry">
            <mxRectangle x="230" y="140" width="160" height="26" as="alternateBounds" />
          </mxGeometry>
        </mxCell>
        <mxCell id="Gbw-wuow6PzR90Tq7J3Y-14" value="mean : float" style="text;align=left;verticalAlign=top;spacingLeft=4;spacingRight=4;overflow=hidden;rotatable=0;points=[[0,0.5],[1,0.5]];portConstraint=eastwest;fontStyle=1" parent="y2l99iwQbg-wAnSwsQFK-0" vertex="1">
          <mxGeometry y="26" width="290" height="30" as="geometry" />
        </mxCell>
        <mxCell id="Gbw-wuow6PzR90Tq7J3Y-15" value="mean_deviation : float" style="text;align=left;verticalAlign=top;spacingLeft=4;spacingRight=4;overflow=hidden;rotatable=0;points=[[0,0.5],[1,0.5]];portConstraint=eastwest;fontStyle=1" parent="y2l99iwQbg-wAnSwsQFK-0" vertex="1">
          <mxGeometry y="56" width="290" height="30" as="geometry" />
        </mxCell>
        <mxCell id="Gbw-wuow6PzR90Tq7J3Y-16" value="plot_update : bool" style="text;align=left;verticalAlign=top;spacingLeft=4;spacingRight=4;overflow=hidden;rotatable=0;points=[[0,0.5],[1,0.5]];portConstraint=eastwest;fontStyle=1" parent="y2l99iwQbg-wAnSwsQFK-0" vertex="1">
          <mxGeometry y="86" width="290" height="30" as="geometry" />
        </mxCell>
        <mxCell id="y2l99iwQbg-wAnSwsQFK-2" value="" style="line;html=1;strokeWidth=1;align=center;verticalAlign=top;spacingTop=-1;spacingLeft=3;spacingRight=3;rotatable=0;labelPosition=right;points=[];portConstraint=eastwest;rounded=0;shadow=1;strokeColor=#6c8ebf;swimlaneFillColor=#ffffff;fontFamily=Helvetica;fontSize=12;fontColor=default;fontStyle=1;fillColor=#dae8fc;gradientColor=#ffffff;" parent="y2l99iwQbg-wAnSwsQFK-0" vertex="1">
          <mxGeometry y="116" width="290" height="8" as="geometry" />
        </mxCell>
        <mxCell id="y2l99iwQbg-wAnSwsQFK-3" value="__init__( p_id = 0,&#xa;               p_tstamp : TStampType = None,&#xa;               p_visualize : bool = False,&#xa;               p_raising_object : object = None,&#xa;               p_instances : Instance = None,&#xa;               p_mean : float = None,&#xa;               p_deviation : float=None,&#xa;               **p_kwargs)" style="text;align=left;verticalAlign=top;spacingLeft=4;spacingRight=4;overflow=hidden;rotatable=0;points=[[0,0.5],[1,0.5]];portConstraint=eastwest;fontStyle=1" parent="y2l99iwQbg-wAnSwsQFK-0" vertex="1">
          <mxGeometry y="124" width="290" height="126" as="geometry" />
        </mxCell>
        <mxCell id="iRqbgX-deYLXcJWkZiLP-6" value="_get_mean( ) -&gt; float" style="text;align=left;verticalAlign=top;spacingLeft=4;spacingRight=4;overflow=hidden;rotatable=0;points=[[0,0.5],[1,0.5]];portConstraint=eastwest;" parent="y2l99iwQbg-wAnSwsQFK-0" vertex="1">
          <mxGeometry y="250" width="290" height="30" as="geometry" />
        </mxCell>
        <mxCell id="0cJ1NAXk0Xtcf3CmwPfC-10" value="_get_mean_deviation( ) -&gt; float" style="text;align=left;verticalAlign=top;spacingLeft=4;spacingRight=4;overflow=hidden;rotatable=0;points=[[0,0.5],[1,0.5]];portConstraint=eastwest;" parent="y2l99iwQbg-wAnSwsQFK-0" vertex="1">
          <mxGeometry y="280" width="290" height="30" as="geometry" />
        </mxCell>
        <mxCell id="oLJumqx1HHhM9YScGNT0-34" value="_init_plot_nd( p_figure: Figure,&#xa;                       p_settings: PlotSettings)" style="text;align=left;verticalAlign=top;spacingLeft=4;spacingRight=4;overflow=hidden;rotatable=0;points=[[0,0.5],[1,0.5]];portConstraint=eastwest;" parent="y2l99iwQbg-wAnSwsQFK-0" vertex="1">
          <mxGeometry y="310" width="290" height="40" as="geometry" />
        </mxCell>
        <mxCell id="N38WU9mJ-Era6qwWuLtT-8" value="_update_plot_nd( p_settings: PlotSettings,&#xa;                             **p_kwargs) -&gt; bool" style="text;align=left;verticalAlign=top;spacingLeft=4;spacingRight=4;overflow=hidden;rotatable=0;points=[[0,0.5],[1,0.5]];portConstraint=eastwest;" parent="y2l99iwQbg-wAnSwsQFK-0" vertex="1">
          <mxGeometry y="350" width="290" height="40" as="geometry" />
        </mxCell>
        <mxCell id="N38WU9mJ-Era6qwWuLtT-14" value="_remove_plot_nd()" style="text;align=left;verticalAlign=top;spacingLeft=4;spacingRight=4;overflow=hidden;rotatable=0;points=[[0,0.5],[1,0.5]];portConstraint=eastwest;" parent="y2l99iwQbg-wAnSwsQFK-0" vertex="1">
          <mxGeometry y="390" width="290" height="20" as="geometry" />
        </mxCell>
        <mxCell id="7JkVl93vQoOUYRVFK4Rs-25" style="edgeStyle=orthogonalEdgeStyle;rounded=0;orthogonalLoop=1;jettySize=auto;html=1;endArrow=block;endFill=0;" parent="WIyWlLk6GJQsqaUBKTNV-1" source="y2l99iwQbg-wAnSwsQFK-5" target="7JkVl93vQoOUYRVFK4Rs-1" edge="1">
          <mxGeometry relative="1" as="geometry">
            <Array as="points">
              <mxPoint x="1505" y="390" />
              <mxPoint x="765" y="390" />
            </Array>
            <mxPoint x="765" y="340" as="targetPoint" />
          </mxGeometry>
        </mxCell>
        <mxCell id="y2l99iwQbg-wAnSwsQFK-5" value="ContextualAnomaly (AnomalyIB)" style="swimlane;fontStyle=1;align=center;verticalAlign=top;childLayout=stackLayout;horizontal=1;startSize=26;horizontalStack=0;resizeParent=1;resizeLast=0;collapsible=1;marginBottom=0;rounded=0;shadow=1;strokeWidth=1;fillColor=#dae8fc;strokeColor=#6c8ebf;swimlaneFillColor=#ffffff;fontFamily=Helvetica;fontSize=12;gradientColor=#FFFFFF;" parent="WIyWlLk6GJQsqaUBKTNV-1" vertex="1">
          <mxGeometry x="1360" y="450" width="290" height="39" as="geometry">
            <mxRectangle x="230" y="140" width="160" height="26" as="alternateBounds" />
          </mxGeometry>
        </mxCell>
        <mxCell id="y2l99iwQbg-wAnSwsQFK-7" value="" style="line;html=1;strokeWidth=1;align=center;verticalAlign=top;spacingTop=-1;spacingLeft=3;spacingRight=3;rotatable=0;labelPosition=right;points=[];portConstraint=eastwest;rounded=0;shadow=1;strokeColor=#6c8ebf;swimlaneFillColor=#ffffff;fontFamily=Helvetica;fontSize=12;fontColor=default;fontStyle=1;fillColor=#dae8fc;gradientColor=#ffffff;" parent="y2l99iwQbg-wAnSwsQFK-5" vertex="1">
          <mxGeometry y="26" width="290" height="8" as="geometry" />
        </mxCell>
        <mxCell id="Gbw-wuow6PzR90Tq7J3Y-11" style="edgeStyle=orthogonalEdgeStyle;rounded=0;orthogonalLoop=1;jettySize=auto;html=1;endArrow=block;endFill=0;" parent="WIyWlLk6GJQsqaUBKTNV-1" source="hOcUKRqpv3udX4BvXm5B-1" target="Gbw-wuow6PzR90Tq7J3Y-0" edge="1">
          <mxGeometry relative="1" as="geometry" />
        </mxCell>
        <mxCell id="hOcUKRqpv3udX4BvXm5B-1" value="AnomalyDetectorIBPG&#xa;(AnomalyDetectorIB)" style="swimlane;fontStyle=1;align=center;verticalAlign=top;childLayout=stackLayout;horizontal=1;startSize=42;horizontalStack=0;resizeParent=1;resizeLast=0;collapsible=1;marginBottom=0;rounded=0;shadow=1;strokeWidth=1;fillColor=#dae8fc;strokeColor=#6c8ebf;swimlaneFillColor=#ffffff;fontFamily=Helvetica;fontSize=12;gradientColor=#FFFFFF;" parent="WIyWlLk6GJQsqaUBKTNV-1" vertex="1">
          <mxGeometry x="150" y="450" width="350" height="346" as="geometry">
            <mxRectangle x="230" y="140" width="160" height="26" as="alternateBounds" />
          </mxGeometry>
        </mxCell>
        <mxCell id="hOcUKRqpv3udX4BvXm5B-2" value="C_TYPE = &#39;Anomaly Detector (IBPG)&#39;" style="text;align=left;verticalAlign=top;spacingLeft=4;spacingRight=4;overflow=hidden;rotatable=0;points=[[0,0.5],[1,0.5]];portConstraint=eastwest;" parent="hOcUKRqpv3udX4BvXm5B-1" vertex="1">
          <mxGeometry y="42" width="350" height="28" as="geometry" />
        </mxCell>
        <mxCell id="K-uiR6WVb6SvZu_kqw6H-8" value="_group_anomalies : list[Anomaly]" style="text;align=left;verticalAlign=top;spacingLeft=4;spacingRight=4;overflow=hidden;rotatable=0;points=[[0,0.5],[1,0.5]];portConstraint=eastwest;" parent="hOcUKRqpv3udX4BvXm5B-1" vertex="1">
          <mxGeometry y="70" width="350" height="28" as="geometry" />
        </mxCell>
        <mxCell id="K-uiR6WVb6SvZu_kqw6H-9" value="_group_anomalies_instances : list[Instance]" style="text;align=left;verticalAlign=top;spacingLeft=4;spacingRight=4;overflow=hidden;rotatable=0;points=[[0,0.5],[1,0.5]];portConstraint=eastwest;" parent="hOcUKRqpv3udX4BvXm5B-1" vertex="1">
          <mxGeometry y="98" width="350" height="28" as="geometry" />
        </mxCell>
        <mxCell id="K-uiR6WVb6SvZu_kqw6H-11" value="_group_anomaly_det : bool" style="text;align=left;verticalAlign=top;spacingLeft=4;spacingRight=4;overflow=hidden;rotatable=0;points=[[0,0.5],[1,0.5]];portConstraint=eastwest;" parent="hOcUKRqpv3udX4BvXm5B-1" vertex="1">
          <mxGeometry y="126" width="350" height="28" as="geometry" />
        </mxCell>
        <mxCell id="hOcUKRqpv3udX4BvXm5B-3" value="" style="line;html=1;strokeWidth=1;align=center;verticalAlign=top;spacingTop=-1;spacingLeft=3;spacingRight=3;rotatable=0;labelPosition=right;points=[];portConstraint=eastwest;rounded=0;shadow=1;strokeColor=#6c8ebf;swimlaneFillColor=#ffffff;fontFamily=Helvetica;fontSize=12;fontColor=default;fontStyle=1;fillColor=#dae8fc;gradientColor=#ffffff;" parent="hOcUKRqpv3udX4BvXm5B-1" vertex="1">
          <mxGeometry y="154" width="350" height="8" as="geometry" />
        </mxCell>
        <mxCell id="hOcUKRqpv3udX4BvXm5B-4" value="__init__( p_name : str = None,&#xa;               p_range_max = StreamTask.C_RANGE_THREAD,&#xa;               p_ada : bool = True,&#xa;               p_duplicate_data : bool = False&#xa;               p_visualize : bool = False,&#xa;               p_logging = Log.C_LOG_ALL,&#xa;               p_anomaly_buffer_size : int = 100,&#xa;               p_thrs_inst : int = 0,&#xa;               p_group_anomaly_det : bool = True,&#xa;               **p_kwargs )" style="text;align=left;verticalAlign=top;spacingLeft=4;spacingRight=4;overflow=hidden;rotatable=0;points=[[0,0.5],[1,0.5]];portConstraint=eastwest;fontStyle=1" parent="hOcUKRqpv3udX4BvXm5B-1" vertex="1">
          <mxGeometry y="162" width="350" height="154" as="geometry" />
        </mxCell>
        <mxCell id="hOcUKRqpv3udX4BvXm5B-5" value="_buffer_anomaly( p_anomaly : Anomaly)" style="text;align=left;verticalAlign=top;spacingLeft=4;spacingRight=4;overflow=hidden;rotatable=0;points=[[0,0.5],[1,0.5]];portConstraint=eastwest;shadow=1;" parent="hOcUKRqpv3udX4BvXm5B-1" vertex="1">
          <mxGeometry y="316" width="350" height="30" as="geometry" />
        </mxCell>
        <mxCell id="0cJ1NAXk0Xtcf3CmwPfC-8" value="Extended template&amp;nbsp;&lt;div&gt;for anomaly detectors. Auto-detects and raises groups of point anomalies as group anomalies&lt;/div&gt;" style="rounded=0;whiteSpace=wrap;html=1;fillColor=#fff2cc;strokeColor=#d6b656;shadow=1;align=left;fontStyle=1" parent="WIyWlLk6GJQsqaUBKTNV-1" vertex="1">
          <mxGeometry x="40" y="360" width="130" height="101" as="geometry" />
        </mxCell>
        <mxCell id="7JkVl93vQoOUYRVFK4Rs-1" value="AnomalyIB (Anomaly)" style="swimlane;fontStyle=1;align=center;verticalAlign=top;childLayout=stackLayout;horizontal=1;startSize=26;horizontalStack=0;resizeParent=1;resizeLast=0;collapsible=1;marginBottom=0;rounded=0;shadow=1;strokeWidth=1;fillColor=#dae8fc;strokeColor=#6c8ebf;swimlaneFillColor=#ffffff;fontFamily=Helvetica;fontSize=12;gradientColor=#FFFFFF;" parent="WIyWlLk6GJQsqaUBKTNV-1" vertex="1">
          <mxGeometry x="620" y="162" width="290" height="170" as="geometry">
            <mxRectangle x="230" y="140" width="160" height="26" as="alternateBounds" />
          </mxGeometry>
        </mxCell>
        <mxCell id="K-uiR6WVb6SvZu_kqw6H-3" value="instances : list[Instance]" style="text;align=left;verticalAlign=top;spacingLeft=4;spacingRight=4;overflow=hidden;rotatable=0;points=[[0,0.5],[1,0.5]];portConstraint=eastwest;fontStyle=1" parent="7JkVl93vQoOUYRVFK4Rs-1" vertex="1">
          <mxGeometry y="26" width="290" height="26" as="geometry" />
        </mxCell>
        <mxCell id="7JkVl93vQoOUYRVFK4Rs-2" value="" style="line;html=1;strokeWidth=1;align=center;verticalAlign=top;spacingTop=-1;spacingLeft=3;spacingRight=3;rotatable=0;labelPosition=right;points=[];portConstraint=eastwest;rounded=0;shadow=1;strokeColor=#6c8ebf;swimlaneFillColor=#ffffff;fontFamily=Helvetica;fontSize=12;fontColor=default;fontStyle=1;fillColor=#dae8fc;gradientColor=#ffffff;" parent="7JkVl93vQoOUYRVFK4Rs-1" vertex="1">
          <mxGeometry y="52" width="290" height="8" as="geometry" />
        </mxCell>
        <mxCell id="7JkVl93vQoOUYRVFK4Rs-3" value="__init__( p_id = 0,&#xa;               p_status : bool = True,&#xa;               p_tstamp : TStampType = None,&#xa;               p_visualize : bool = False,&#xa;               p_raising_object : object = None,&#xa;               p_instances : list[Instance] = [],&#xa;               **p_kwargs )" style="text;align=left;verticalAlign=top;spacingLeft=4;spacingRight=4;overflow=hidden;rotatable=0;points=[[0,0.5],[1,0.5]];portConstraint=eastwest;fontStyle=1" parent="7JkVl93vQoOUYRVFK4Rs-1" vertex="1">
          <mxGeometry y="60" width="290" height="110" as="geometry" />
        </mxCell>
        <mxCell id="7JkVl93vQoOUYRVFK4Rs-11" value="Sub-type for instance-based anomalies" style="rounded=0;whiteSpace=wrap;html=1;fillColor=#fff2cc;strokeColor=#d6b656;shadow=1;align=left;fontStyle=1;verticalAlign=top;" parent="WIyWlLk6GJQsqaUBKTNV-1" vertex="1">
          <mxGeometry x="890" y="124.5" width="100" height="51" as="geometry" />
        </mxCell>
        <mxCell id="Gbw-wuow6PzR90Tq7J3Y-9" style="edgeStyle=orthogonalEdgeStyle;rounded=0;orthogonalLoop=1;jettySize=auto;html=1;endArrow=block;endFill=1;" parent="WIyWlLk6GJQsqaUBKTNV-1" source="Gbw-wuow6PzR90Tq7J3Y-0" target="7JkVl93vQoOUYRVFK4Rs-1" edge="1">
          <mxGeometry relative="1" as="geometry" />
        </mxCell>
        <mxCell id="Gbw-wuow6PzR90Tq7J3Y-0" value="AnomalyDetectorIB&#xa;(AnomalyDetector)" style="swimlane;fontStyle=1;align=center;verticalAlign=top;childLayout=stackLayout;horizontal=1;startSize=42;horizontalStack=0;resizeParent=1;resizeLast=0;collapsible=1;marginBottom=0;rounded=0;shadow=1;strokeWidth=1;fillColor=#dae8fc;strokeColor=#6c8ebf;swimlaneFillColor=#ffffff;fontFamily=Helvetica;fontSize=12;gradientColor=#FFFFFF;" parent="WIyWlLk6GJQsqaUBKTNV-1" vertex="1">
          <mxGeometry x="150" y="162" width="350" height="94" as="geometry">
            <mxRectangle x="230" y="140" width="160" height="26" as="alternateBounds" />
          </mxGeometry>
        </mxCell>
        <mxCell id="Gbw-wuow6PzR90Tq7J3Y-1" value="C_TYPE = &#39;Anomaly Detector (IB)&#39;" style="text;align=left;verticalAlign=top;spacingLeft=4;spacingRight=4;overflow=hidden;rotatable=0;points=[[0,0.5],[1,0.5]];portConstraint=eastwest;" parent="Gbw-wuow6PzR90Tq7J3Y-0" vertex="1">
          <mxGeometry y="42" width="350" height="28" as="geometry" />
        </mxCell>
        <mxCell id="Gbw-wuow6PzR90Tq7J3Y-6" value="" style="line;html=1;strokeWidth=1;align=center;verticalAlign=top;spacingTop=-1;spacingLeft=3;spacingRight=3;rotatable=0;labelPosition=right;points=[];portConstraint=eastwest;rounded=0;shadow=1;strokeColor=#6c8ebf;swimlaneFillColor=#ffffff;fontFamily=Helvetica;fontSize=12;fontColor=default;fontStyle=1;fillColor=#dae8fc;gradientColor=#ffffff;" parent="Gbw-wuow6PzR90Tq7J3Y-0" vertex="1">
          <mxGeometry y="70" width="350" height="8" as="geometry" />
        </mxCell>
        <mxCell id="Gbw-wuow6PzR90Tq7J3Y-10" value="Sub-type for instance-based anomaly detectors" style="rounded=0;whiteSpace=wrap;html=1;fillColor=#fff2cc;strokeColor=#d6b656;shadow=1;align=left;fontStyle=1;verticalAlign=top;" parent="WIyWlLk6GJQsqaUBKTNV-1" vertex="1">
          <mxGeometry x="70" y="102" width="100" height="73.5" as="geometry" />
        </mxCell>
      </root>
    </mxGraphModel>
  </diagram>
</mxfile>
